<svg t="1686030604471" class="icon" viewBox="0 0 1024 1024" version="1.1" xmlns="http://www.w3.org/2000/svg" p-id="2703" width="200" height="200"><path d="M918.223 125.763c-0.021-23.657-19.221-42.805-42.857-42.805h-0.041l-728.572 0.9c-23.657 0.021-42.836 19.231-42.815 42.899L62 898.248c0.021 23.657 19.221 42.794 42.878 42.794h0.042l814.285-0.994c23.658-0.021 42.838-19.241 42.795-42.92l-43.777-771.365z m-167.36 309.752c-41.057 93.362-134.723 153.766-238.643 153.86h-0.377c-103.722 0-197.356-60.121-238.634-153.274-9.584-21.639 0.178-46.949 21.826-56.543 21.585-9.596 46.948 0.178 56.543 21.826 27.539 62.15 90.433 102.277 160.285 102.277h0.251c69.988-0.063 132.893-40.357 160.275-102.654 9.542-21.659 34.821-31.474 56.49-21.983 21.66 9.532 31.506 34.821 21.984 56.491z" fill="#3B81FF" p-id="2704"></path></svg>